<?xml version="1.0" standalone="no"?>
<!DOCTYPE svg PUBLIC "-//W3C//DTD SVG 20010904//EN"
 "http://www.w3.org/TR/2001/REC-SVG-20010904/DTD/svg10.dtd">
<svg version="1.0" xmlns="http://www.w3.org/2000/svg"
 width="484.000000pt" height="521.000000pt" viewBox="0 0 484.000000 521.000000"
 preserveAspectRatio="xMidYMid meet">

<g transform="translate(0.000000,521.000000) scale(0.100000,-0.100000)"
fill="#000000" stroke="none">
<path d="M1206 4779 c-26 -22 -37 -41 -41 -72 -12 -77 -2 -88 167 -171 84 -41
241 -125 348 -187 107 -61 238 -133 290 -159 52 -26 133 -70 180 -97 169 -97
253 -122 334 -99 47 14 353 171 611 313 123 68 439 228 527 267 64 28 98 70
98 122 0 60 -66 114 -137 114 -41 0 -67 -13 -308 -155 -82 -48 -215 -123 -295
-168 -80 -44 -234 -135 -343 -203 l-198 -124 -94 57 c-51 32 -189 114 -306
183 -117 69 -294 174 -393 234 -279 169 -293 176 -353 176 -44 0 -58 -5 -87
-31z"/>
<path d="M675 4548 c-41 -22 -85 -73 -89 -102 -3 -17 -7 -133 -10 -257 l-5
-226 67 -7 c170 -16 372 -78 532 -164 89 -48 267 -167 314 -211 49 -47 143
-169 187 -246 54 -92 81 -163 89 -233 11 -85 -4 -292 -30 -416 -12 -54 -20
-100 -18 -101 2 -2 41 8 88 22 70 20 101 24 175 21 81 -4 99 -9 175 -45 47
-23 103 -57 126 -77 51 -43 108 -138 130 -214 18 -64 43 -109 91 -166 34 -41
72 -131 97 -231 8 -33 22 -85 31 -115 21 -69 24 -226 6 -300 -38 -159 -180
-334 -332 -411 -43 -21 -149 -59 -236 -84 -260 -76 -293 -87 -293 -94 0 -22
274 -92 450 -116 122 -16 192 -33 185 -45 -3 -5 2 -11 11 -14 8 -3 12 -11 9
-16 -4 -6 -1 -17 5 -25 6 -8 9 -19 6 -24 -4 -6 15 -11 46 -14 l53 -3 -63 -2
c-91 -3 -344 25 -437 48 -98 24 -312 103 -452 167 -91 41 -103 49 -109 77 -11
46 -4 117 12 133 8 8 14 19 14 25 0 5 7 8 14 5 10 -4 13 -1 9 8 -3 8 -9 12
-14 9 -5 -3 -9 -2 -10 3 -4 45 -3 63 3 63 4 0 8 9 8 20 0 11 4 20 9 20 5 0 7
9 4 21 -4 16 -8 17 -14 7 -7 -10 -9 -10 -9 3 0 8 -7 24 -15 35 -11 14 -14 15
-9 3 3 -10 1 -20 -5 -24 -6 -3 -11 2 -12 12 -2 48 -11 79 -27 93 -11 9 -18 28
-17 45 1 17 -5 42 -12 56 -7 15 -12 44 -11 64 1 32 3 35 13 21 17 -23 28 -20
22 7 -4 12 -2 29 3 37 7 11 10 8 15 -13 4 -15 11 -25 15 -22 4 3 11 -2 14 -11
4 -10 2 -13 -7 -9 -6 4 -4 0 5 -7 13 -11 59 -121 67 -160 0 -5 1 -9 2 -10 0
-2 2 -25 4 -53 2 -27 4 -56 4 -63 1 -7 6 -10 11 -7 6 3 10 2 10 -4 0 -5 -8
-12 -17 -14 -15 -4 -15 -6 5 -12 12 -4 22 -12 22 -17 0 -5 -4 -6 -10 -3 -5 3
-10 1 -10 -4 0 -6 5 -11 10 -11 6 0 10 -6 10 -14 0 -7 21 -36 48 -64 l47 -51
50 10 c84 16 237 60 275 79 20 10 83 35 140 55 132 46 170 68 248 147 106 107
134 193 93 285 -19 40 -75 103 -93 103 -4 0 4 19 19 43 33 52 53 117 53 171 0
89 -96 195 -191 211 -39 7 -40 8 -32 38 13 50 8 129 -9 162 -23 42 -75 93
-119 116 -49 25 -134 37 -184 26 -282 -61 -418 -99 -620 -174 -310 -116 -435
-222 -565 -483 -24 -47 -48 -103 -54 -125 l-12 -40 -11 32 c-7 18 -9 32 -5 32
20 -3 25 2 12 11 -13 9 -13 10 0 10 10 0 15 11 16 34 0 30 -2 33 -28 32 -15
-1 -27 -5 -25 -11 1 -5 5 -9 8 -8 4 1 5 -7 2 -18 -8 -28 -12 -22 -87 127 -106
212 -152 358 -176 564 -13 110 -21 126 -133 244 -49 52 -80 77 -92 75 -45 -9
-58 -191 -29 -399 61 -445 245 -841 563 -1214 221 -259 607 -519 980 -660 268
-102 490 -140 796 -138 331 3 600 59 908 189 329 138 562 297 808 549 201 207
354 453 470 754 58 150 118 403 133 560 3 30 9 79 12 109 17 141 -47 652 -106
848 -40 130 -110 233 -159 233 -95 0 -140 -155 -91 -313 11 -36 32 -133 46
-214 23 -133 25 -174 25 -397 -1 -310 -21 -468 -83 -650 -41 -122 -100 -252
-134 -294 -19 -22 -19 9 -18 1350 l0 1373 -26 27 c-34 33 -99 51 -170 46 -46
-3 -99 -26 -316 -131 -279 -135 -381 -183 -539 -254 -55 -25 -190 -89 -300
-143 -384 -188 -520 -252 -575 -266 -60 -16 -152 -11 -206 11 -38 16 -75 46
-68 56 9 15 -115 112 -222 172 -60 34 -158 89 -218 122 -59 33 -173 98 -254
144 -81 47 -243 133 -361 193 -197 100 -217 108 -270 108 -31 0 -65 -6 -76
-12z m2815 -833 c266 -91 522 -393 571 -674 34 -190 -26 -448 -125 -540 -33
-31 -33 -44 2 -67 93 -60 192 -168 192 -209 0 -37 -55 -103 -96 -114 -57 -16
-92 5 -185 112 l-82 96 -46 -23 c-84 -42 -188 -68 -270 -68 -164 0 -314 47
-414 129 -16 13 -32 23 -35 23 -4 0 -18 -18 -32 -40 -14 -22 -28 -40 -31 -40
-4 0 -46 -45 -94 -100 -49 -55 -94 -100 -100 -100 -7 0 -18 -7 -25 -15 -7 -8
-27 -15 -46 -15 -26 0 -45 11 -91 54 -56 52 -57 54 -44 79 14 27 131 149 237
248 32 30 67 67 76 81 9 13 44 41 77 61 l60 35 28 -24 c63 -55 163 -114 219
-129 102 -26 289 -12 328 26 6 5 -27 45 -80 97 -110 109 -313 320 -336 350
-10 12 -21 22 -25 22 -5 0 -43 -29 -85 -65 -73 -61 -98 -76 -98 -57 0 11 -102
115 -132 135 -35 22 -67 79 -48 85 7 3 33 26 59 52 25 26 93 92 151 145 58 54
131 122 162 152 57 53 59 54 92 43 19 -6 65 -33 102 -61 37 -27 75 -49 85 -49
11 0 19 -5 19 -11 0 -17 -172 -209 -181 -203 -5 3 -9 1 -9 -5 0 -13 59 -73
293 -302 l189 -184 32 37 c41 47 53 88 67 223 16 156 1 256 -52 359 -55 107
-133 211 -250 331 -92 95 -130 145 -111 145 5 0 41 -11 82 -25z m-1491 -1387
c9 -8 12 -9 7 -1 -11 20 31 3 54 -22 27 -29 29 -94 6 -131 -20 -30 -72 -57
-97 -51 -11 3 -17 2 -14 -3 3 -4 -2 -11 -10 -14 -9 -3 -18 1 -21 9 -10 24 -37
19 -31 -6 7 -26 -30 -43 -50 -23 -15 15 -17 28 -4 20 17 -11 18 19 2 31 -14
11 -14 13 4 18 12 4 26 15 33 26 10 16 10 21 -3 25 -20 8 -11 20 30 40 19 9
35 21 35 27 0 7 -4 7 -12 -1 -18 -18 -28 -15 -21 6 6 15 5 15 -10 3 -11 -9
-17 -10 -17 -2 0 6 6 12 13 12 6 1 17 2 22 4 6 1 14 3 19 3 6 1 1 9 -10 17
-17 13 -17 14 -2 15 9 0 19 -4 23 -10 3 -5 12 -7 20 -4 8 4 12 10 9 15 -8 13
10 11 25 -3z m-109 -18 c0 -5 -4 -10 -10 -10 -5 0 -10 5 -10 10 0 6 5 10 10
10 6 0 10 -4 10 -10z m-30 -14 c0 -8 -10 -14 -22 -14 -13 0 -38 -4 -55 -10
-18 -6 -33 -7 -33 -3 0 4 21 15 48 23 60 21 62 21 62 4z m-25 -26 c-3 -5 -12
-10 -18 -10 -7 0 -6 4 3 10 19 12 23 12 15 0z m-658 -204 c0 -8 -6 -12 -14 -9
-7 3 -32 -5 -55 -17 -28 -14 -38 -16 -28 -6 8 8 33 22 55 30 22 8 40 15 41 15
0 1 1 -5 1 -13z m657 5 c3 -5 -6 -11 -21 -14 -26 -5 -26 -4 -8 9 22 17 22 17
29 5z m409 -81 c56 -49 63 -77 35 -146 -13 -33 -30 -58 -36 -56 -7 1 -12 -2
-12 -7 0 -7 -46 -21 -77 -22 -5 -1 -13 -5 -19 -10 -6 -5 -14 -6 -17 -2 -12 11
-8 23 7 23 8 0 16 6 19 13 3 9 8 9 23 -3 13 -9 15 -10 7 -1 -10 11 -6 20 18
41 33 32 37 53 12 72 -19 14 -23 41 -9 55 5 4 6 3 3 -3 -7 -12 21 -29 31 -19
3 3 -1 5 -8 5 -7 0 -11 3 -7 6 9 9 -16 33 -28 26 -5 -2 -4 1 3 9 17 19 15 37
-5 42 -14 4 -13 5 4 6 12 0 38 -12 56 -29z m-1217 5 c-11 -8 -24 -15 -29 -15
-4 0 -6 -4 -3 -8 2 -4 -5 -9 -17 -9 -17 -2 -12 4 18 23 44 27 61 31 31 9z
m1044 -25 c-8 -5 -19 -10 -25 -10 -5 0 -3 5 5 10 8 5 20 10 25 10 6 0 3 -5 -5
-10z m-85 -30 c-11 -5 -27 -9 -35 -9 -9 0 -8 4 5 9 11 5 27 9 35 9 9 0 8 -4
-5 -9z m-610 -31 c4 -5 -1 -19 -10 -29 -23 -26 -15 -79 21 -133 23 -35 24 -42
13 -63 -14 -28 -14 -28 -23 10 -6 26 -5 28 9 16 13 -11 15 -10 9 3 -3 8 -12
18 -19 21 -19 7 -8 -76 11 -87 8 -4 14 -15 14 -23 0 -9 5 -12 11 -8 7 4 6 -3
-2 -17 l-13 -24 -7 30 c-4 17 -7 26 -8 20 -1 -11 -24 24 -41 65 -22 52 -33 69
-44 67 -6 -1 -10 4 -8 12 13 58 13 71 4 71 -5 0 -8 -8 -5 -19 3 -10 0 -22 -6
-25 -7 -5 -11 5 -11 29 0 25 4 34 12 29 7 -5 9 -2 6 7 -3 8 1 24 9 34 14 19
14 18 8 -15 l-6 -35 16 30 c21 39 29 45 22 18 -3 -13 -1 -23 4 -23 9 0 13 14
10 38 -2 15 15 16 24 1z m219 -118 c-10 -10 -22 -17 -26 -14 -5 2 -8 0 -8 -5
0 -5 -12 -14 -26 -20 -19 -9 -24 -9 -18 0 5 8 2 9 -12 4 -13 -5 -16 -4 -9 3 8
7 93 45 114 50 3 1 -4 -7 -15 -18z m509 -45 c4 -10 1 -13 -8 -9 -8 3 -12 9 -9
14 7 12 11 11 17 -5z m-113 -56 c-8 -5 -19 -10 -25 -10 -5 0 -3 5 5 10 8 5 20
10 25 10 6 0 3 -5 -5 -10z m-1225 -97 c-2 -10 -4 -20 -4 -22 -1 -3 -7 4 -15
15 -8 10 -19 20 -25 20 -6 1 -14 2 -18 3 -3 0 2 10 11 20 17 19 18 19 36 1 10
-10 17 -27 15 -37z m29 -7 c-3 -7 2 -19 11 -26 8 -7 15 -19 15 -27 0 -9 6 -13
14 -10 11 4 13 1 9 -10 -4 -9 -2 -14 3 -11 5 4 10 -5 10 -18 1 -14 14 -36 28
-49 14 -13 26 -28 26 -33 0 -5 10 -12 22 -15 21 -6 21 -7 5 -25 -19 -21 -22
-32 -7 -32 5 0 9 5 7 11 -1 6 4 14 12 17 8 2 11 0 8 -5 -5 -8 18 -31 67 -66
17 -12 17 -15 2 -29 -14 -14 -14 -17 0 -22 8 -3 12 -2 9 4 -3 6 0 10 8 10 15
0 40 -40 35 -56 -2 -5 2 -9 7 -9 6 0 9 5 7 10 -2 6 4 2 14 -7 10 -10 14 -23
10 -34 -5 -14 -15 -8 -59 32 -28 27 -63 59 -76 72 -14 12 -23 22 -20 22 3 0
-21 28 -53 63 -32 34 -58 68 -58 75 0 6 -4 12 -9 12 -13 0 -111 132 -111 149
0 8 6 5 18 -8 13 -16 20 -18 32 -10 12 9 11 10 -4 5 -19 -7 -19 -6 -3 12 9 10
14 22 10 27 -5 4 -3 5 4 1 7 -4 10 -13 7 -20z m1489 17 c-7 -2 -19 -2 -25 0
-7 3 -2 5 12 5 14 0 19 -2 13 -5z m-118 -23 c-3 -5 -12 -10 -18 -10 -7 0 -6 4
3 10 19 12 23 12 15 0z m145 -21 c0 7 5 9 10 6 6 -4 8 -11 5 -16 -4 -5 -2 -9
3 -9 14 0 -4 -75 -25 -106 -14 -21 -61 -54 -77 -54 -3 0 -2 7 1 17 4 10 2 14
-4 10 -16 -10 -22 14 -11 37 6 10 8 26 5 37 -3 10 1 23 9 30 8 6 12 15 9 19
-3 5 0 12 6 16 8 4 9 3 5 -4 -4 -7 -3 -12 3 -12 5 0 13 5 16 10 4 6 11 7 17 4
7 -4 8 -2 4 5 -4 6 -11 9 -16 6 -5 -3 -12 0 -16 6 -4 8 -3 9 4 5 7 -4 12 -2
12 5 0 7 8 5 20 -6 12 -11 20 -13 20 -6z m-190 1 c-8 -5 -19 -10 -25 -10 -5 0
-3 5 5 10 8 5 20 10 25 10 6 0 3 -5 -5 -10z m-260 -94 c0 -3 -4 -8 -10 -11 -5
-3 -10 -1 -10 4 0 6 5 11 10 11 6 0 10 -2 10 -4z m-30 -16 c0 -5 -2 -10 -4
-10 -3 0 -8 5 -11 10 -3 6 -1 10 4 10 6 0 11 -4 11 -10z m-91 -36 c-18 -7 -27
-13 -19 -13 13 -1 13 -2 0 -11 -10 -6 -11 -10 -2 -10 17 0 15 -30 -5 -52 -23
-26 -30 -23 -52 21 l-18 40 56 24 c31 14 60 22 65 19 6 -3 -6 -11 -25 -18z
m81 -34 c8 -5 11 -10 5 -10 -5 0 -17 5 -25 10 -8 5 -10 10 -5 10 6 0 17 -5 25
-10z m170 -15 c0 -2 -10 -9 -22 -15 -22 -11 -22 -10 -4 4 21 17 26 19 26 11z
m177 -1 c-3 -3 -12 -4 -19 -1 -8 3 -5 6 6 6 11 1 17 -2 13 -5z m-198 -56 c8 3
11 0 7 -6 -13 -21 -156 -59 -156 -42 0 15 18 21 23 8 3 -8 6 -5 6 6 1 16 3 17
18 5 10 -9 14 -9 10 -2 -9 15 28 37 45 27 8 -5 9 0 5 17 -6 24 -6 24 11 3 10
-11 24 -18 31 -16z m-139 -18 c-20 -13 -33 -13 -25 0 3 6 14 10 23 10 15 0 15
-2 2 -10z m-668 -175 c3 0 9 -3 13 -7 4 -3 0 -5 -9 -4 -9 1 -22 8 -29 16 -10
10 -9 11 3 4 8 -5 18 -9 22 -9z m61 -38 c9 9 38 -18 31 -28 -3 -5 -10 -7 -15
-3 -5 3 -6 10 -3 16 5 7 2 9 -8 5 -9 -3 -24 1 -35 9 -17 14 -17 15 3 5 12 -6
24 -8 27 -4z m121 -63 c-2 -19 2 -23 19 -21 16 1 22 -4 23 -20 1 -12 -3 -20
-8 -17 -4 3 -6 9 -3 14 3 5 1 11 -5 15 -5 3 -10 1 -10 -5 0 -6 -11 -4 -25 6
-18 12 -22 20 -15 29 5 6 8 14 5 17 -3 2 1 5 8 5 9 0 13 -9 11 -23z"/>
<path d="M1848 2143 c7 -3 16 -2 19 1 4 3 -2 6 -13 5 -11 0 -14 -3 -6 -6z"/>
<path d="M1888 2143 c7 -3 16 -2 19 1 4 3 -2 6 -13 5 -11 0 -14 -3 -6 -6z"/>
<path d="M1866 2114 c-8 -21 -8 -21 8 -21 8 0 11 8 8 19 -5 22 -8 23 -16 2z"/>
<path d="M820 1500 c0 -5 5 -10 11 -10 5 0 7 5 4 10 -3 6 -8 10 -11 10 -2 0
-4 -4 -4 -10z"/>
<path d="M790 1496 c0 -2 8 -10 18 -17 15 -13 16 -12 3 4 -13 16 -21 21 -21
13z"/>
<path d="M905 1360 c3 -5 8 -10 11 -10 2 0 4 5 4 10 0 6 -5 10 -11 10 -5 0 -7
-4 -4 -10z"/>
<path d="M1101 1164 c0 -11 3 -14 6 -6 3 7 2 16 -1 19 -3 4 -6 -2 -5 -13z"/>
<path d="M230 3653 c0 -87 5 -210 10 -273 12 -130 66 -352 108 -439 43 -90
103 -182 114 -174 7 4 8 1 3 -7 -11 -18 131 -153 155 -147 10 2 24 1 31 -4 10
-6 11 -9 2 -9 -26 0 -12 -16 25 -29 20 -8 39 -17 42 -21 9 -12 129 -52 139
-46 5 4 12 2 15 -3 10 -16 301 -37 310 -22 4 6 13 8 21 4 11 -4 15 2 15 20 0
14 4 28 8 31 5 3 8 -5 8 -17 -1 -13 5 -22 14 -22 8 0 20 -4 27 -8 6 -4 14 -3
18 3 3 5 0 10 -8 10 -8 0 -17 10 -20 23 -6 21 -6 21 8 3 32 -43 12 3 -42 93
-64 110 -151 231 -164 231 -5 0 -9 5 -9 11 0 12 -165 205 -180 211 -5 2 -44
35 -86 73 -43 39 -82 69 -87 67 -5 -1 -6 2 -3 7 9 14 -15 61 -28 55 -6 -3 0 4
14 16 14 12 18 18 10 14 -12 -5 -12 -4 -3 6 6 7 9 19 6 28 -4 10 -2 13 5 8 7
-4 12 -3 12 2 0 12 65 13 96 2 33 -13 124 -83 197 -153 31 -31 57 -50 57 -44
0 7 6 0 14 -15 8 -15 50 -69 93 -120 114 -133 216 -271 253 -339 17 -32 35
-61 41 -64 14 -9 56 88 80 186 18 68 21 104 17 207 -3 104 -7 126 -21 133 -9
6 -17 18 -16 27 0 14 2 13 9 -3 10 -23 13 -5 4 19 -3 9 -10 13 -16 10 -5 -3
-9 0 -7 7 1 8 1 23 0 34 -1 17 -3 18 -12 5 -9 -12 -10 -11 -6 6 5 26 -10 57
-25 48 -7 -4 -8 -2 -4 5 9 14 -32 83 -45 75 -5 -3 -8 0 -7 8 2 7 -8 14 -21 16
-16 3 -21 0 -16 -9 6 -8 4 -10 -5 -4 -11 7 -11 10 3 19 14 9 7 19 -49 74 -37
36 -69 60 -76 56 -6 -4 -8 -3 -5 3 15 24 -205 144 -351 193 -166 55 -465 98
-483 69 -6 -10 -9 -11 -9 -1 0 9 -25 12 -90 12 l-90 0 0 -157z m1227 -328 c0
-8 -4 -12 -9 -9 -5 3 -6 10 -3 15 9 13 12 11 12 -6z m28 -65 c3 -5 1 -10 -4
-10 -6 0 -11 5 -11 10 0 6 2 10 4 10 3 0 8 -4 11 -10z"/>
<path d="M587 2362 c-6 -72 8 -285 24 -346 7 -27 17 -46 25 -46 8 0 14 4 14
10 0 12 38 69 103 151 36 46 76 82 131 118 l79 51 -40 0 c-51 0 -211 52 -279
90 l-52 29 -5 -57z"/>
<path d="M4400 1009 c-32 -13 -78 -56 -96 -91 -19 -38 -18 -74 7 -124 28 -59
77 -88 145 -86 88 2 143 43 164 121 32 119 -100 227 -220 180z m107 -98 c17
-35 5 -46 -22 -21 -30 29 -45 18 -45 -31 0 -33 3 -39 21 -39 11 0 29 5 40 11
18 9 20 8 17 -13 -3 -20 -9 -23 -55 -26 l-53 -3 0 65 c0 51 4 67 18 75 28 17
65 8 79 -18z"/>
</g>
</svg>
